<?xml version="1.0" encoding="UTF-8" standalone="no"?>
<!DOCTYPE svg PUBLIC "-//W3C//DTD SVG 1.1//EN" "http://www.w3.org/Graphics/SVG/1.1/DTD/svg11.dtd">
<svg xmlns="http://www.w3.org/2000/svg" version="1.1" viewBox="0.00 0.00 1305.00 639.00">
<g stroke-width="2.00" fill="none" stroke-linecap="butt">
<path stroke="#80d1f5" vector-effect="non-scaling-stroke" d="
  M 551.62 127.27
  C 592.50 127.51 633.19 127.64 674.01 130.79
  Q 676.79 131.01 679.47 131.15"
/>
<path stroke="#8ecce2" vector-effect="non-scaling-stroke" d="
  M 679.47 131.15
  Q 781.41 139.59 879.41 167.93
  C 932.34 183.23 983.80 205.96 1026.16 238.58
  C 1070.83 273.00 1096.27 328.79 1056.16 378.68
  Q 1037.65 401.70 1013.59 418.88
  C 964.56 453.89 909.06 472.61 850.23 489.95
  A 0.55 0.55 0.0 0 0 849.96 490.83
  Q 850.09 490.98 850.50 490.94
  C 923.01 483.43 995.09 471.90 1065.03 450.87
  Q 1132.29 430.65 1193.37 396.07
  C 1232.62 373.85 1273.63 340.06 1289.91 296.48
  C 1303.23 260.81 1294.61 225.71 1273.12 195.61
  Q 1256.42 172.22 1233.85 154.42
  C 1200.96 128.46 1162.82 108.60 1124.67 93.58
  Q 1056.80 66.85 982.94 52.29
  Q 771.96 10.70 558.73 39.30
  Q 505.32 46.47 452.76 58.32
  C 391.19 72.20 330.38 92.61 275.54 124.27
  C 243.35 142.86 213.53 166.30 189.90 195.14
  A 0.66 0.66 0.0 0 0 190.23 196.20
  Q 190.83 196.37 191.52 196.07
  Q 267.17 163.47 348.03 147.61
  Q 381.78 140.99 403.00 138.03
  Q 474.19 128.09 551.62 127.27"
/>
<path stroke="#0e9dd7" vector-effect="non-scaling-stroke" d="
  M 679.47 131.15
  Q 684.68 129.70 690.13 129.83
  C 702.14 130.12 714.89 129.90 726.68 132.35
  Q 731.89 133.44 735.95 133.74
  Q 745.31 134.44 754.58 136.00
  C 755.61 136.18 756.63 136.67 757.57 137.13
  Q 758.69 137.67 759.84 137.78
  Q 773.63 139.16 780.00 140.90
  C 783.68 141.92 787.34 141.96 790.41 142.89
  Q 793.93 143.95 797.74 145.04
  Q 798.30 145.20 798.87 145.31
  Q 808.40 147.15 817.97 148.83
  A 1.14 1.14 0.0 0 1 818.69 149.28
  C 819.41 150.26 820.76 149.80 821.54 149.95
  Q 826.35 150.87 831.23 151.49
  C 834.34 151.89 836.86 153.66 840.08 154.13
  Q 844.80 154.82 845.82 155.09
  Q 848.59 155.84 851.38 156.52
  C 853.16 156.96 855.12 157.92 857.27 158.22
  Q 859.63 158.55 861.57 159.23
  Q 864.03 160.09 866.68 160.15
  Q 867.20 160.16 867.64 160.42
  C 870.98 162.38 874.63 162.35 877.84 163.65
  Q 890.32 168.70 903.59 170.85
  Q 912.02 172.22 915.27 173.17
  Q 921.00 174.85 926.51 177.19
  C 939.62 182.76 953.35 187.85 965.77 193.86
  Q 979.08 200.30 985.31 203.68
  Q 998.19 210.69 1016.01 222.47
  C 1019.75 224.94 1023.30 228.16 1027.04 230.96
  A 1.88 1.87 -82.2 0 1 1027.63 231.74
  Q 1027.95 232.55 1028.64 232.97
  Q 1030.29 233.98 1030.40 234.07
  Q 1035.66 238.81 1041.39 242.98
  Q 1043.66 244.64 1046.19 248.33
  Q 1047.65 250.45 1049.69 252.14
  Q 1052.41 254.38 1053.24 256.00
  C 1055.20 259.86 1059.20 262.88 1061.37 267.58
  Q 1062.63 270.32 1064.22 272.15
  Q 1065.98 274.19 1067.72 276.26
  Q 1068.03 276.64 1068.07 277.12
  Q 1068.16 278.16 1069.09 279.65
  Q 1074.63 288.58 1079.01 300.94
  Q 1079.71 302.93 1080.03 305.76
  C 1080.49 309.98 1081.84 314.28 1082.04 317.92
  C 1082.48 326.08 1081.98 333.11 1079.89 341.44
  Q 1077.77 349.91 1076.82 352.73
  Q 1072.69 365.05 1065.51 375.81
  C 1062.93 379.68 1061.44 383.63 1058.47 387.27
  Q 1051.09 396.31 1042.06 405.81
  Q 1036.98 411.15 1030.63 414.22
  Q 1022.93 417.95 1022.87 417.98
  Q 1016.76 421.63 1011.54 426.46
  C 1007.98 429.75 1004.22 431.56 1000.35 434.25
  Q 995.40 437.69 991.65 439.63
  C 985.20 442.97 978.77 447.05 972.05 449.75
  Q 970.29 450.45 967.47 451.71
  Q 956.33 456.67 945.38 462.05
  C 943.21 463.11 940.83 463.48 939.03 465.13
  Q 937.81 466.24 936.55 467.42
  A 1.25 1.23 70.5 0 0 936.14 468.30
  Q 936.02 471.74 938.52 474.11
  Q 938.85 474.42 939.32 474.44
  Q 946.36 474.72 953.24 473.30
  Q 957.00 472.52 960.35 472.45
  C 966.87 472.31 971.33 469.97 977.00 468.83
  Q 984.86 467.25 986.37 466.85
  Q 999.91 463.29 1013.61 460.34
  Q 1018.52 459.28 1024.16 457.22
  Q 1030.78 454.79 1035.00 453.99
  Q 1040.85 452.88 1050.75 449.20
  C 1057.87 446.56 1067.35 445.45 1075.72 442.64
  Q 1079.34 441.42 1083.01 440.38
  C 1085.58 439.64 1087.40 438.10 1090.26 437.50
  Q 1094.52 436.60 1098.45 434.78
  Q 1102.02 433.13 1104.85 432.21
  Q 1108.16 431.14 1111.33 429.69
  C 1113.56 428.67 1116.09 428.40 1118.26 427.40
  Q 1131.63 421.28 1145.19 415.60
  Q 1154.51 411.70 1159.71 409.32
  Q 1169.88 404.67 1173.95 402.42
  Q 1180.28 398.93 1186.65 395.51
  Q 1192.26 392.49 1197.04 389.45
  C 1207.07 383.07 1216.09 376.57 1224.84 368.86
  Q 1228.24 365.87 1231.91 362.95
  C 1239.73 356.76 1245.46 350.28 1255.08 340.08
  Q 1259.31 335.59 1271.53 318.78
  Q 1280.09 307.00 1286.45 290.72
  Q 1287.80 287.26 1288.39 283.03
  Q 1288.95 279.04 1289.60 275.07
  Q 1289.68 274.58 1289.98 274.19
  Q 1290.45 273.59 1290.46 273.00
  C 1290.55 265.28 1291.48 256.89 1290.10 249.55
  C 1287.97 238.28 1283.65 226.87 1278.68 216.58
  Q 1274.59 208.13 1268.34 200.03
  Q 1259.46 188.54 1249.15 178.27
  C 1247.83 176.96 1246.61 175.09 1245.09 173.66
  C 1236.46 165.53 1227.74 157.68 1218.01 150.66
  Q 1212.58 146.74 1207.14 142.82
  Q 1202.53 139.50 1196.01 135.69
  C 1187.16 130.52 1178.61 125.18 1168.27 119.81
  C 1157.85 114.39 1145.31 109.20 1133.86 103.76
  Q 1127.37 100.68 1119.50 97.82
  C 1108.31 93.75 1097.37 88.22 1086.30 84.76
  Q 1069.56 79.53 1063.51 77.95
  Q 1043.62 72.78 1033.50 69.62
  Q 1031.92 69.12 1027.88 68.39
  Q 1025.46 67.95 1022.25 66.96
  Q 1011.53 63.67 995.08 60.85
  Q 989.20 59.84 978.52 57.45
  C 970.49 55.65 960.99 54.11 950.09 52.63
  Q 939.81 51.23 926.88 48.62
  Q 913.25 45.88 894.95 43.96
  Q 889.85 43.42 883.74 42.39
  C 868.73 39.86 853.31 38.43 838.17 36.87
  C 826.65 35.68 813.42 35.90 800.99 34.82
  C 791.92 34.03 783.65 33.69 774.98 33.00
  Q 763.96 32.12 755.47 32.09
  Q 726.99 31.96 698.50 32.02
  Q 688.85 32.03 678.54 33.02
  Q 668.39 33.99 658.23 34.85
  Q 651.39 35.43 638.98 35.62
  Q 623.08 35.88 607.27 37.91
  C 596.19 39.34 584.86 40.23 574.01 42.91
  Q 571.21 43.60 567.92 43.84
  Q 558.81 44.51 549.88 46.29
  Q 533.51 49.56 533.02 49.65
  Q 524.62 51.08 516.24 52.58
  Q 511.23 53.48 499.42 55.07
  Q 482.86 57.30 466.83 62.10
  C 455.79 65.41 443.63 66.66 432.93 68.87
  Q 429.28 69.63 426.03 71.69
  Q 422.95 73.64 421.14 74.19
  Q 416.13 75.71 410.92 76.23
  Q 405.59 76.75 402.66 77.53
  Q 386.38 81.84 370.55 87.64
  C 366.03 89.29 360.70 90.21 355.82 92.10
  C 351.04 93.94 345.45 97.97 339.61 100.10
  Q 328.55 104.13 317.59 108.48
  C 312.09 110.66 306.49 114.08 300.67 116.55
  Q 295.08 118.93 291.20 121.21
  Q 277.64 129.15 263.61 136.19
  Q 250.62 142.71 241.23 151.87
  Q 236.58 156.41 231.52 158.67
  A 1.90 1.84 -83.7 0 0 230.75 159.31
  Q 227.68 163.70 221.45 166.67
  Q 219.48 167.61 217.95 170.58
  Q 217.70 171.05 218.07 171.44
  Q 218.85 172.27 219.39 173.26
  C 221.27 176.69 224.17 177.31 227.98 176.31
  Q 231.90 175.28 233.91 173.46
  A 0.28 0.27 13.0 0 1 234.03 173.39
  L 251.30 169.39
  Q 251.74 169.29 252.08 168.99
  C 254.01 167.26 258.44 166.52 260.64 165.99
  C 265.46 164.83 269.66 162.96 274.32 161.80
  C 278.52 160.76 282.67 158.81 286.75 157.98
  Q 294.26 156.44 299.53 155.05
  C 303.46 154.00 307.61 153.38 311.60 152.33
  C 318.72 150.46 323.80 149.23 329.89 147.62
  C 332.08 147.05 334.61 145.45 337.66 145.48
  A 1.88 1.84 30.4 0 0 338.54 145.26
  Q 344.44 142.04 350.99 140.59
  Q 367.56 136.94 384.48 136.19
  C 389.21 135.98 393.78 135.16 398.47 134.67
  Q 402.65 134.23 408.88 133.03
  Q 413.71 132.10 418.61 131.75
  C 429.37 130.98 439.96 129.22 450.74 128.50
  Q 457.64 128.03 467.22 126.91
  Q 477.09 125.75 487.04 125.62
  Q 491.74 125.55 498.92 124.93
  Q 505.40 124.37 514.50 124.28
  Q 531.88 124.12 538.49 124.67
  Q 545.25 125.23 551.62 127.27"
/>
<path stroke="#80d1f5" vector-effect="non-scaling-stroke" d="
  M 525.96 607.96
  Q 575.28 610.01 624.14 607.85"
/>
<path stroke="#8ecce2" vector-effect="non-scaling-stroke" d="
  M 624.14 607.85
  C 632.53 607.98 643.18 607.04 649.15 606.74
  Q 776.83 600.40 899.78 565.34
  C 959.06 548.44 1016.75 523.78 1066.82 487.55"
/>
<path stroke="#80d1f5" vector-effect="non-scaling-stroke" d="
  M 1066.82 487.55
  Q 1093.53 468.08 1113.65 441.64
  A 0.45 0.45 0.0 0 0 1113.50 440.97
  Q 1112.49 440.45 1111.29 440.97
  C 1100.50 445.72 1089.62 450.54 1078.74 454.54
  C 1046.72 466.33 1013.81 476.46 980.48 483.85
  Q 947.30 491.20 928.51 494.22
  Q 788.58 516.74 647.28 507.34"
/>
<path stroke="#8ecce2" vector-effect="non-scaling-stroke" d="
  M 647.28 507.34
  C 552.10 501.45 459.17 484.30 370.15 450.28
  C 342.64 439.76 315.68 425.59 292.40 409.37
  C 264.94 390.24 235.19 362.02 228.89 327.80
  C 214.12 247.56 321.54 192.85 380.60 171.26
  Q 413.82 159.12 448.13 148.45
  A 0.42 0.42 0.0 0 0 448.00 147.63
  Q 442.93 147.74 437.51 148.31
  Q 408.07 151.44 378.78 155.66
  Q 276.91 170.36 180.70 206.84
  Q 144.18 220.68 110.59 240.59
  C 51.78 275.43 -19.38 339.96 16.97 417.80
  C 38.04 462.92 82.35 495.94 125.31 518.42
  Q 180.07 547.06 239.46 564.14
  Q 379.84 604.50 525.96 607.96"
/>
<path stroke="#0e9dd7" vector-effect="non-scaling-stroke" d="
  M 647.28 507.34
  Q 641.06 510.80 634.13 508.88
  Q 633.67 508.75 633.34 509.15
  Q 633.02 509.53 632.52 509.52
  C 625.25 509.39 617.75 509.79 610.84 509.30
  Q 589.39 507.78 568.17 504.41
  C 555.06 502.33 544.62 500.99 532.80 499.47
  C 527.89 498.84 523.44 497.83 518.73 496.73
  Q 514.88 495.84 508.19 494.64
  C 502.54 493.62 497.09 491.97 491.44 490.88
  C 485.94 489.81 479.01 487.79 475.06 486.92
  C 468.02 485.39 461.25 484.11 454.12 481.88
  Q 444.19 478.77 434.03 476.63
  C 427.69 475.29 422.21 473.46 416.31 471.57
  Q 411.43 469.99 403.03 467.79
  C 388.06 463.86 373.84 457.19 360.60 452.04
  Q 352.00 448.70 345.77 445.46
  C 337.11 440.96 329.01 436.30 319.83 432.15
  Q 313.99 429.51 310.07 426.94
  Q 300.52 420.68 290.83 414.65
  C 286.23 411.79 282.26 407.94 277.85 404.71
  Q 267.95 397.45 259.22 388.78
  Q 253.69 383.28 252.37 380.86
  Q 251.08 378.50 249.95 377.37
  Q 249.59 377.01 249.35 376.57
  Q 248.34 374.65 246.14 372.25
  Q 244.36 370.32 241.47 365.71
  Q 240.85 364.71 239.30 362.70
  C 237.41 360.26 236.24 357.35 234.41 355.01
  Q 231.44 351.21 229.54 346.74
  Q 228.15 343.49 226.83 340.19
  C 225.26 336.29 224.97 332.23 223.86 328.01
  Q 223.01 324.77 222.80 322.65
  Q 221.23 306.58 225.15 291.05
  C 226.92 284.08 230.60 276.66 233.68 269.69
  Q 236.09 264.24 239.19 259.77
  C 242.18 255.45 245.09 251.38 248.57 247.44
  Q 249.73 246.12 251.36 243.86
  Q 253.65 240.68 262.17 233.72
  C 266.24 230.38 269.99 225.61 275.33 222.60
  Q 275.78 222.35 275.97 221.86
  Q 276.23 221.16 276.51 221.02
  C 279.34 219.50 282.00 218.05 284.58 215.95
  C 294.43 207.95 303.42 202.21 314.97 194.88
  Q 319.40 192.07 322.92 190.14
  Q 328.80 186.92 331.27 186.08
  Q 346.37 180.96 356.74 174.24
  C 360.11 172.06 359.97 166.97 356.02 165.09
  Q 354.90 164.56 353.40 164.84
  Q 345.11 166.40 336.75 167.53
  Q 334.34 167.85 327.84 169.91
  C 322.90 171.47 317.76 171.11 312.61 172.02
  Q 309.27 172.60 304.12 174.70
  Q 295.56 178.18 286.50 180.09
  C 282.26 180.98 278.65 182.07 274.68 183.14
  C 268.01 184.92 260.82 185.62 253.87 186.93
  C 244.31 188.73 233.27 193.83 225.98 195.47
  Q 207.37 199.68 190.73 208.93
  Q 187.19 210.89 181.02 212.73
  Q 174.99 214.52 171.27 216.26
  Q 163.65 219.85 156.21 223.82
  C 153.33 225.36 151.13 227.36 148.06 228.75
  Q 136.84 233.86 125.73 239.23
  C 122.61 240.75 119.50 243.11 116.07 244.76
  Q 110.35 247.52 108.67 248.53
  Q 83.07 264.08 65.39 280.14
  Q 62.04 283.18 52.79 292.38
  C 49.40 295.75 46.00 299.99 42.42 303.65
  C 34.14 312.14 28.02 322.35 22.50 332.77
  C 19.39 338.64 17.81 345.17 15.83 351.62
  Q 14.01 357.53 13.59 362.57
  C 12.66 373.86 12.80 385.92 15.85 396.60
  Q 18.50 405.90 23.27 414.44
  C 27.02 421.15 30.55 428.56 34.87 434.43
  C 39.13 440.22 44.06 445.61 48.31 451.21
  Q 58.46 464.57 68.20 472.58
  Q 78.68 481.22 89.17 489.84
  Q 93.93 493.76 113.62 504.50
  Q 122.13 509.14 130.19 514.51
  Q 134.04 517.07 138.90 519.07
  Q 144.87 521.52 157.70 527.24
  Q 158.14 527.43 160.14 528.74
  Q 161.46 529.60 163.15 529.90
  Q 163.60 529.98 163.96 530.26
  Q 167.91 533.33 174.16 535.68
  Q 184.20 539.45 190.24 541.09
  C 192.16 541.62 193.81 542.73 195.45 543.31
  Q 209.91 548.46 224.58 552.98
  C 226.49 553.57 228.34 554.61 230.04 555.58
  Q 231.85 556.62 234.20 557.33
  Q 238.32 558.58 242.02 560.84
  Q 242.39 561.07 242.84 561.08
  Q 245.13 561.13 246.94 562.53
  Q 247.34 562.84 247.84 562.88
  C 250.36 563.11 252.24 563.16 254.60 564.42
  Q 258.70 566.62 263.30 567.32
  C 268.52 568.11 272.91 570.37 278.20 571.13
  Q 282.12 571.68 286.17 572.50
  Q 290.15 573.30 294.25 573.36
  C 295.49 573.37 296.46 574.02 297.53 574.53
  Q 298.70 575.08 300.05 575.38
  Q 304.97 576.49 309.88 577.62
  Q 310.50 577.76 311.49 579.03
  A 1.04 1.03 -18.7 0 0 312.31 579.43
  Q 314.99 579.42 317.64 579.76
  C 319.45 579.99 320.95 581.01 322.96 581.32
  C 326.46 581.85 329.48 583.22 332.73 583.04
  Q 338.03 582.75 342.87 584.06
  Q 345.79 584.85 348.56 584.58
  Q 348.98 584.54 349.32 584.78
  Q 353.10 587.45 357.75 587.12
  A 1.53 1.50 -34.1 0 1 358.51 587.26
  C 362.73 589.29 366.88 588.89 371.02 589.75
  Q 374.14 590.40 377.32 590.61
  Q 380.92 590.85 383.60 591.36
  Q 391.76 592.91 400.08 592.90
  Q 403.84 592.90 407.34 593.61
  Q 411.58 594.47 415.87 595.02
  Q 426.12 596.33 428.08 596.62
  C 439.53 598.33 451.18 598.87 462.43 599.97
  Q 469.12 600.63 475.83 601.08
  C 477.94 601.21 480.02 602.17 482.12 602.40
  Q 488.60 603.10 495.09 603.88
  Q 498.85 604.33 505.43 604.36
  Q 513.17 604.40 520.74 605.98
  C 522.61 606.37 524.10 607.34 525.96 607.96"
/>
<path stroke="#0e9dd7" vector-effect="non-scaling-stroke" d="
  M 1066.82 487.55
  Q 1066.20 485.58 1064.06 486.40
  C 1061.72 487.28 1059.16 487.34 1057.13 488.91
  C 1055.56 490.13 1053.73 490.29 1052.15 491.63
  Q 1048.21 494.98 1043.68 497.44
  C 1038.56 500.22 1034.54 504.16 1029.25 506.80
  C 1016.92 512.97 1004.60 519.86 991.63 524.54
  Q 989.18 525.43 985.99 527.44
  C 981.02 530.58 976.25 531.80 970.12 535.13
  C 963.59 538.69 956.94 540.82 950.08 543.23
  Q 944.43 545.22 938.58 547.64
  C 932.93 549.98 927.20 552.16 921.60 554.63
  Q 918.74 555.89 915.69 556.45
  Q 910.71 557.36 908.98 557.91
  Q 902.97 559.83 896.93 561.63
  C 893.18 562.74 887.65 564.87 882.78 565.93
  Q 879.26 566.70 873.82 568.08
  C 869.22 569.25 864.26 569.88 859.07 571.37
  C 854.44 572.70 849.47 573.20 844.73 574.41
  C 837.50 576.26 830.96 577.39 824.07 578.98
  Q 820.11 579.90 813.30 580.80
  Q 806.43 581.70 799.79 583.73
  C 794.40 585.38 788.87 585.59 783.42 587.25
  Q 780.01 588.28 776.94 588.51
  Q 766.26 589.29 755.85 591.79
  Q 751.59 592.81 747.53 593.00
  Q 737.20 593.47 731.25 594.73
  Q 723.02 596.47 717.93 597.10
  Q 711.66 597.87 711.58 597.88
  Q 689.18 601.25 680.00 601.58
  Q 669.35 601.96 658.75 602.93
  C 657.65 603.03 656.32 603.86 655.04 603.94
  Q 639.52 604.85 624.14 607.85"
/>
<path stroke="#80d1f5" vector-effect="non-scaling-stroke" d="
  M 325.42 408.20
  C 326.31 402.50 330.39 398.46 336.52 399.75
  Q 341.43 400.79 354.29 404.41
  Q 363.46 406.98 379.50 408.93
  C 393.01 410.57 411.25 408.85 424.14 403.27
  C 436.28 398.02 447.88 389.31 453.43 377.41
  C 465.71 351.10 447.26 331.55 425.47 319.52
  Q 408.59 310.21 387.59 301.06
  C 375.39 295.74 367.06 291.75 357.34 285.65
  C 349.26 280.58 340.31 273.42 341.94 263.15
  C 343.44 253.73 352.61 245.01 361.62 241.61
  C 377.13 235.75 395.74 238.65 410.26 246.52
  Q 425.45 254.73 432.27 270.64
  Q 433.79 274.18 436.52 285.23
  Q 437.50 289.17 442.02 287.97
  Q 442.50 287.84 442.63 287.37
  Q 443.06 285.84 443.06 283.50
  Q 443.09 256.62 443.02 229.75
  Q 443.02 228.04 441.66 226.83
  Q 441.29 226.50 440.79 226.56
  C 436.83 227.00 434.76 235.11 430.17 236.94
  Q 427.89 237.85 425.97 237.28
  C 410.13 232.57 394.67 227.86 377.99 227.85
  C 357.33 227.83 330.58 236.06 320.84 256.05
  C 309.12 280.11 325.37 304.09 346.98 314.27
  Q 379.85 329.76 412.09 346.47
  C 422.18 351.70 429.97 362.39 428.34 374.06
  C 426.55 386.94 412.66 395.44 400.74 397.38
  C 376.27 401.38 341.44 394.66 330.97 368.82
  Q 329.58 365.38 325.17 352.16
  C 324.73 350.83 323.95 349.68 322.73 349.20
  A 2.50 2.49 -67.3 0 0 319.52 350.52
  Q 318.03 353.94 318.14 357.87
  Q 318.87 382.80 318.72 407.75
  C 318.71 410.54 323.38 410.06 324.92 409.01
  A 1.23 1.23 0.0 0 0 325.42 408.20"
/>
<path stroke="#80d1f5" vector-effect="non-scaling-stroke" d="
  M 797.8933 316.2553
  A 103.79 91.30 -1.3 0 0 692.0586 227.3335
  A 103.79 91.30 -1.3 0 0 590.3667 320.9647
  A 103.79 91.30 -1.3 0 0 696.2014 409.8865
  A 103.79 91.30 -1.3 0 0 797.8933 316.2553"
/>
<path stroke="#80d1f5" vector-effect="non-scaling-stroke" d="
  M 484.43 236.19
  C 494.72 236.32 511.31 238.89 511.32 252.25
  Q 511.33 314.78 511.27 377.31
  C 511.26 381.37 511.14 387.10 509.98 390.01
  C 504.78 403.00 492.27 397.40 482.57 402.13
  A 1.54 1.53 46.7 0 0 482.49 404.85
  C 484.29 405.88 486.20 405.74 488.29 405.74
  Q 529.38 405.77 570.33 405.76
  A 1.86 1.85 -83.3 0 0 572.13 404.33
  C 572.98 400.71 570.91 400.21 567.91 400.29
  C 558.21 400.55 546.86 399.24 543.43 388.14
  Q 542.11 383.86 542.04 380.50
  Q 540.69 317.62 542.80 254.74
  C 543.13 244.99 546.90 240.06 556.64 237.57
  Q 563.32 235.85 570.15 236.08
  A 1.91 1.91 0.0 0 0 572.12 234.00
  C 571.86 231.10 570.26 231.42 567.66 231.42
  Q 526.08 231.46 484.50 231.59
  Q 482.65 231.59 481.70 233.84
  Q 481.52 234.26 481.75 234.65
  Q 482.64 236.17 484.43 236.19"
/>
<path stroke="#80d1f5" vector-effect="non-scaling-stroke" d="
  M 923.17 243.25
  Q 937.54 242.10 952.24 242.87
  C 966.79 243.62 980.03 247.75 987.11 261.49
  C 988.58 264.34 989.45 268.39 990.79 271.67
  A 2.51 2.51 0.0 0 0 994.03 273.06
  Q 996.42 272.13 996.27 269.24
  Q 995.32 250.75 993.82 233.49
  Q 993.62 231.25 991.38 231.26
  L 824.27 231.27
  Q 821.47 231.27 821.31 234.06
  Q 820.20 252.93 819.28 271.42
  Q 819.20 272.97 820.63 273.63
  C 822.93 274.69 824.88 272.28 825.31 270.24
  Q 830.23 246.92 854.09 243.59
  Q 870.91 241.23 891.19 243.48
  Q 891.67 243.54 891.75 244.02
  Q 892.07 246.11 892.06 248.25
  Q 891.82 316.00 891.24 383.75
  C 891.12 399.00 874.97 399.51 864.18 401.60
  Q 862.54 401.92 862.22 403.46
  A 1.64 1.64 0.0 0 0 863.61 405.42
  Q 866.28 405.77 869.00 405.77
  Q 908.37 405.72 947.75 406.07
  C 951.21 406.10 953.78 402.64 950.47 400.41
  Q 950.05 400.13 949.55 400.18
  C 935.76 401.49 922.46 398.04 922.36 381.51
  Q 921.91 313.10 922.63 243.83
  Q 922.63 243.29 923.17 243.25"
/>
<path stroke="#80d1f5" vector-effect="non-scaling-stroke" d="
  M 634.18 276.21
  C 621.70 307.44 623.50 364.05 653.44 386.35
  C 673.99 401.65 701.79 404.63 724.87 393.03
  C 762.94 373.90 767.60 321.20 756.87 284.66
  C 753.45 273.01 747.67 261.99 738.75 253.76
  C 724.44 240.58 705.52 235.07 686.28 237.52
  C 663.99 240.36 642.75 254.75 634.18 276.21"
/>
</g>
<path fill="#ffffff" d="
  M 0.00 0.00
  L 1305.00 0.00
  L 1305.00 639.00
  L 0.00 639.00
  L 0.00 0.00
  Z
  M 551.62 127.27
  C 592.50 127.51 633.19 127.64 674.01 130.79
  Q 676.79 131.01 679.47 131.15
  Q 781.41 139.59 879.41 167.93
  C 932.34 183.23 983.80 205.96 1026.16 238.58
  C 1070.83 273.00 1096.27 328.79 1056.16 378.68
  Q 1037.65 401.70 1013.59 418.88
  C 964.56 453.89 909.06 472.61 850.23 489.95
  A 0.55 0.55 0.0 0 0 849.96 490.83
  Q 850.09 490.98 850.50 490.94
  C 923.01 483.43 995.09 471.90 1065.03 450.87
  Q 1132.29 430.65 1193.37 396.07
  C 1232.62 373.85 1273.63 340.06 1289.91 296.48
  C 1303.23 260.81 1294.61 225.71 1273.12 195.61
  Q 1256.42 172.22 1233.85 154.42
  C 1200.96 128.46 1162.82 108.60 1124.67 93.58
  Q 1056.80 66.85 982.94 52.29
  Q 771.96 10.70 558.73 39.30
  Q 505.32 46.47 452.76 58.32
  C 391.19 72.20 330.38 92.61 275.54 124.27
  C 243.35 142.86 213.53 166.30 189.90 195.14
  A 0.66 0.66 0.0 0 0 190.23 196.20
  Q 190.83 196.37 191.52 196.07
  Q 267.17 163.47 348.03 147.61
  Q 381.78 140.99 403.00 138.03
  Q 474.19 128.09 551.62 127.27
  Z
  M 525.96 607.96
  Q 575.28 610.01 624.14 607.85
  C 632.53 607.98 643.18 607.04 649.15 606.74
  Q 776.83 600.40 899.78 565.34
  C 959.06 548.44 1016.75 523.78 1066.82 487.55
  Q 1093.53 468.08 1113.65 441.64
  A 0.45 0.45 0.0 0 0 1113.50 440.97
  Q 1112.49 440.45 1111.29 440.97
  C 1100.50 445.72 1089.62 450.54 1078.74 454.54
  C 1046.72 466.33 1013.81 476.46 980.48 483.85
  Q 947.30 491.20 928.51 494.22
  Q 788.58 516.74 647.28 507.34
  C 552.10 501.45 459.17 484.30 370.15 450.28
  C 342.64 439.76 315.68 425.59 292.40 409.37
  C 264.94 390.24 235.19 362.02 228.89 327.80
  C 214.12 247.56 321.54 192.85 380.60 171.26
  Q 413.82 159.12 448.13 148.45
  A 0.42 0.42 0.0 0 0 448.00 147.63
  Q 442.93 147.74 437.51 148.31
  Q 408.07 151.44 378.78 155.66
  Q 276.91 170.36 180.70 206.84
  Q 144.18 220.68 110.59 240.59
  C 51.78 275.43 -19.38 339.96 16.97 417.80
  C 38.04 462.92 82.35 495.94 125.31 518.42
  Q 180.07 547.06 239.46 564.14
  Q 379.84 604.50 525.96 607.96
  Z
  M 325.42 408.20
  C 326.31 402.50 330.39 398.46 336.52 399.75
  Q 341.43 400.79 354.29 404.41
  Q 363.46 406.98 379.50 408.93
  C 393.01 410.57 411.25 408.85 424.14 403.27
  C 436.28 398.02 447.88 389.31 453.43 377.41
  C 465.71 351.10 447.26 331.55 425.47 319.52
  Q 408.59 310.21 387.59 301.06
  C 375.39 295.74 367.06 291.75 357.34 285.65
  C 349.26 280.58 340.31 273.42 341.94 263.15
  C 343.44 253.73 352.61 245.01 361.62 241.61
  C 377.13 235.75 395.74 238.65 410.26 246.52
  Q 425.45 254.73 432.27 270.64
  Q 433.79 274.18 436.52 285.23
  Q 437.50 289.17 442.02 287.97
  Q 442.50 287.84 442.63 287.37
  Q 443.06 285.84 443.06 283.50
  Q 443.09 256.62 443.02 229.75
  Q 443.02 228.04 441.66 226.83
  Q 441.29 226.50 440.79 226.56
  C 436.83 227.00 434.76 235.11 430.17 236.94
  Q 427.89 237.85 425.97 237.28
  C 410.13 232.57 394.67 227.86 377.99 227.85
  C 357.33 227.83 330.58 236.06 320.84 256.05
  C 309.12 280.11 325.37 304.09 346.98 314.27
  Q 379.85 329.76 412.09 346.47
  C 422.18 351.70 429.97 362.39 428.34 374.06
  C 426.55 386.94 412.66 395.44 400.74 397.38
  C 376.27 401.38 341.44 394.66 330.97 368.82
  Q 329.58 365.38 325.17 352.16
  C 324.73 350.83 323.95 349.68 322.73 349.20
  A 2.50 2.49 -67.3 0 0 319.52 350.52
  Q 318.03 353.94 318.14 357.87
  Q 318.87 382.80 318.72 407.75
  C 318.71 410.54 323.38 410.06 324.92 409.01
  A 1.23 1.23 0.0 0 0 325.42 408.20
  Z
  M 797.8933 316.2553
  A 103.79 91.30 -1.3 0 0 692.0586 227.3335
  A 103.79 91.30 -1.3 0 0 590.3667 320.9647
  A 103.79 91.30 -1.3 0 0 696.2014 409.8865
  A 103.79 91.30 -1.3 0 0 797.8933 316.2553
  Z
  M 484.43 236.19
  C 494.72 236.32 511.31 238.89 511.32 252.25
  Q 511.33 314.78 511.27 377.31
  C 511.26 381.37 511.14 387.10 509.98 390.01
  C 504.78 403.00 492.27 397.40 482.57 402.13
  A 1.54 1.53 46.7 0 0 482.49 404.85
  C 484.29 405.88 486.20 405.74 488.29 405.74
  Q 529.38 405.77 570.33 405.76
  A 1.86 1.85 -83.3 0 0 572.13 404.33
  C 572.98 400.71 570.91 400.21 567.91 400.29
  C 558.21 400.55 546.86 399.24 543.43 388.14
  Q 542.11 383.86 542.04 380.50
  Q 540.69 317.62 542.80 254.74
  C 543.13 244.99 546.90 240.06 556.64 237.57
  Q 563.32 235.85 570.15 236.08
  A 1.91 1.91 0.0 0 0 572.12 234.00
  C 571.86 231.10 570.26 231.42 567.66 231.42
  Q 526.08 231.46 484.50 231.59
  Q 482.65 231.59 481.70 233.84
  Q 481.52 234.26 481.75 234.65
  Q 482.64 236.17 484.43 236.19
  Z
  M 923.17 243.25
  Q 937.54 242.10 952.24 242.87
  C 966.79 243.62 980.03 247.75 987.11 261.49
  C 988.58 264.34 989.45 268.39 990.79 271.67
  A 2.51 2.51 0.0 0 0 994.03 273.06
  Q 996.42 272.13 996.27 269.24
  Q 995.32 250.75 993.82 233.49
  Q 993.62 231.25 991.38 231.26
  L 824.27 231.27
  Q 821.47 231.27 821.31 234.06
  Q 820.20 252.93 819.28 271.42
  Q 819.20 272.97 820.63 273.63
  C 822.93 274.69 824.88 272.28 825.31 270.24
  Q 830.23 246.92 854.09 243.59
  Q 870.91 241.23 891.19 243.48
  Q 891.67 243.54 891.75 244.02
  Q 892.07 246.11 892.06 248.25
  Q 891.82 316.00 891.24 383.75
  C 891.12 399.00 874.97 399.51 864.18 401.60
  Q 862.54 401.92 862.22 403.46
  A 1.64 1.64 0.0 0 0 863.61 405.42
  Q 866.28 405.77 869.00 405.77
  Q 908.37 405.72 947.75 406.07
  C 951.21 406.10 953.78 402.64 950.47 400.41
  Q 950.05 400.13 949.55 400.18
  C 935.76 401.49 922.46 398.04 922.36 381.51
  Q 921.91 313.10 922.63 243.83
  Q 922.63 243.29 923.17 243.25
  Z"
/>
<path fill="#1c98c4" d="
  M 679.47 131.15
  Q 684.68 129.70 690.13 129.83
  C 702.14 130.12 714.89 129.90 726.68 132.35
  Q 731.89 133.44 735.95 133.74
  Q 745.31 134.44 754.58 136.00
  C 755.61 136.18 756.63 136.67 757.57 137.13
  Q 758.69 137.67 759.84 137.78
  Q 773.63 139.16 780.00 140.90
  C 783.68 141.92 787.34 141.96 790.41 142.89
  Q 793.93 143.95 797.74 145.04
  Q 798.30 145.20 798.87 145.31
  Q 808.40 147.15 817.97 148.83
  A 1.14 1.14 0.0 0 1 818.69 149.28
  C 819.41 150.26 820.76 149.80 821.54 149.95
  Q 826.35 150.87 831.23 151.49
  C 834.34 151.89 836.86 153.66 840.08 154.13
  Q 844.80 154.82 845.82 155.09
  Q 848.59 155.84 851.38 156.52
  C 853.16 156.96 855.12 157.92 857.27 158.22
  Q 859.63 158.55 861.57 159.23
  Q 864.03 160.09 866.68 160.15
  Q 867.20 160.16 867.64 160.42
  C 870.98 162.38 874.63 162.35 877.84 163.65
  Q 890.32 168.70 903.59 170.85
  Q 912.02 172.22 915.27 173.17
  Q 921.00 174.85 926.51 177.19
  C 939.62 182.76 953.35 187.85 965.77 193.86
  Q 979.08 200.30 985.31 203.68
  Q 998.19 210.69 1016.01 222.47
  C 1019.75 224.94 1023.30 228.16 1027.04 230.96
  A 1.88 1.87 -82.2 0 1 1027.63 231.74
  Q 1027.95 232.55 1028.64 232.97
  Q 1030.29 233.98 1030.40 234.07
  Q 1035.66 238.81 1041.39 242.98
  Q 1043.66 244.64 1046.19 248.33
  Q 1047.65 250.45 1049.69 252.14
  Q 1052.41 254.38 1053.24 256.00
  C 1055.20 259.86 1059.20 262.88 1061.37 267.58
  Q 1062.63 270.32 1064.22 272.15
  Q 1065.98 274.19 1067.72 276.26
  Q 1068.03 276.64 1068.07 277.12
  Q 1068.16 278.16 1069.09 279.65
  Q 1074.63 288.58 1079.01 300.94
  Q 1079.71 302.93 1080.03 305.76
  C 1080.49 309.98 1081.84 314.28 1082.04 317.92
  C 1082.48 326.08 1081.98 333.11 1079.89 341.44
  Q 1077.77 349.91 1076.82 352.73
  Q 1072.69 365.05 1065.51 375.81
  C 1062.93 379.68 1061.44 383.63 1058.47 387.27
  Q 1051.09 396.31 1042.06 405.81
  Q 1036.98 411.15 1030.63 414.22
  Q 1022.93 417.95 1022.87 417.98
  Q 1016.76 421.63 1011.54 426.46
  C 1007.98 429.75 1004.22 431.56 1000.35 434.25
  Q 995.40 437.69 991.65 439.63
  C 985.20 442.97 978.77 447.05 972.05 449.75
  Q 970.29 450.45 967.47 451.71
  Q 956.33 456.67 945.38 462.05
  C 943.21 463.11 940.83 463.48 939.03 465.13
  Q 937.81 466.24 936.55 467.42
  A 1.25 1.23 70.5 0 0 936.14 468.30
  Q 936.02 471.74 938.52 474.11
  Q 938.85 474.42 939.32 474.44
  Q 946.36 474.72 953.24 473.30
  Q 957.00 472.52 960.35 472.45
  C 966.87 472.31 971.33 469.97 977.00 468.83
  Q 984.86 467.25 986.37 466.85
  Q 999.91 463.29 1013.61 460.34
  Q 1018.52 459.28 1024.16 457.22
  Q 1030.78 454.79 1035.00 453.99
  Q 1040.85 452.88 1050.75 449.20
  C 1057.87 446.56 1067.35 445.45 1075.72 442.64
  Q 1079.34 441.42 1083.01 440.38
  C 1085.58 439.64 1087.40 438.10 1090.26 437.50
  Q 1094.52 436.60 1098.45 434.78
  Q 1102.02 433.13 1104.85 432.21
  Q 1108.16 431.14 1111.33 429.69
  C 1113.56 428.67 1116.09 428.40 1118.26 427.40
  Q 1131.63 421.28 1145.19 415.60
  Q 1154.51 411.70 1159.71 409.32
  Q 1169.88 404.67 1173.95 402.42
  Q 1180.28 398.93 1186.65 395.51
  Q 1192.26 392.49 1197.04 389.45
  C 1207.07 383.07 1216.09 376.57 1224.84 368.86
  Q 1228.24 365.87 1231.91 362.95
  C 1239.73 356.76 1245.46 350.28 1255.08 340.08
  Q 1259.31 335.59 1271.53 318.78
  Q 1280.09 307.00 1286.45 290.72
  Q 1287.80 287.26 1288.39 283.03
  Q 1288.95 279.04 1289.60 275.07
  Q 1289.68 274.58 1289.98 274.19
  Q 1290.45 273.59 1290.46 273.00
  C 1290.55 265.28 1291.48 256.89 1290.10 249.55
  C 1287.97 238.28 1283.65 226.87 1278.68 216.58
  Q 1274.59 208.13 1268.34 200.03
  Q 1259.46 188.54 1249.15 178.27
  C 1247.83 176.96 1246.61 175.09 1245.09 173.66
  C 1236.46 165.53 1227.74 157.68 1218.01 150.66
  Q 1212.58 146.74 1207.14 142.82
  Q 1202.53 139.50 1196.01 135.69
  C 1187.16 130.52 1178.61 125.18 1168.27 119.81
  C 1157.85 114.39 1145.31 109.20 1133.86 103.76
  Q 1127.37 100.68 1119.50 97.82
  C 1108.31 93.75 1097.37 88.22 1086.30 84.76
  Q 1069.56 79.53 1063.51 77.95
  Q 1043.62 72.78 1033.50 69.62
  Q 1031.92 69.12 1027.88 68.39
  Q 1025.46 67.95 1022.25 66.96
  Q 1011.53 63.67 995.08 60.85
  Q 989.20 59.84 978.52 57.45
  C 970.49 55.65 960.99 54.11 950.09 52.63
  Q 939.81 51.23 926.88 48.62
  Q 913.25 45.88 894.95 43.96
  Q 889.85 43.42 883.74 42.39
  C 868.73 39.86 853.31 38.43 838.17 36.87
  C 826.65 35.68 813.42 35.90 800.99 34.82
  C 791.92 34.03 783.65 33.69 774.98 33.00
  Q 763.96 32.12 755.47 32.09
  Q 726.99 31.96 698.50 32.02
  Q 688.85 32.03 678.54 33.02
  Q 668.39 33.99 658.23 34.85
  Q 651.39 35.43 638.98 35.62
  Q 623.08 35.88 607.27 37.91
  C 596.19 39.34 584.86 40.23 574.01 42.91
  Q 571.21 43.60 567.92 43.84
  Q 558.81 44.51 549.88 46.29
  Q 533.51 49.56 533.02 49.65
  Q 524.62 51.08 516.24 52.58
  Q 511.23 53.48 499.42 55.07
  Q 482.86 57.30 466.83 62.10
  C 455.79 65.41 443.63 66.66 432.93 68.87
  Q 429.28 69.63 426.03 71.69
  Q 422.95 73.64 421.14 74.19
  Q 416.13 75.71 410.92 76.23
  Q 405.59 76.75 402.66 77.53
  Q 386.38 81.84 370.55 87.64
  C 366.03 89.29 360.70 90.21 355.82 92.10
  C 351.04 93.94 345.45 97.97 339.61 100.10
  Q 328.55 104.13 317.59 108.48
  C 312.09 110.66 306.49 114.08 300.67 116.55
  Q 295.08 118.93 291.20 121.21
  Q 277.64 129.15 263.61 136.19
  Q 250.62 142.71 241.23 151.87
  Q 236.58 156.41 231.52 158.67
  A 1.90 1.84 -83.7 0 0 230.75 159.31
  Q 227.68 163.70 221.45 166.67
  Q 219.48 167.61 217.95 170.58
  Q 217.70 171.05 218.07 171.44
  Q 218.85 172.27 219.39 173.26
  C 221.27 176.69 224.17 177.31 227.98 176.31
  Q 231.90 175.28 233.91 173.46
  A 0.28 0.27 13.0 0 1 234.03 173.39
  L 251.30 169.39
  Q 251.74 169.29 252.08 168.99
  C 254.01 167.26 258.44 166.52 260.64 165.99
  C 265.46 164.83 269.66 162.96 274.32 161.80
  C 278.52 160.76 282.67 158.81 286.75 157.98
  Q 294.26 156.44 299.53 155.05
  C 303.46 154.00 307.61 153.38 311.60 152.33
  C 318.72 150.46 323.80 149.23 329.89 147.62
  C 332.08 147.05 334.61 145.45 337.66 145.48
  A 1.88 1.84 30.4 0 0 338.54 145.26
  Q 344.44 142.04 350.99 140.59
  Q 367.56 136.94 384.48 136.19
  C 389.21 135.98 393.78 135.16 398.47 134.67
  Q 402.65 134.23 408.88 133.03
  Q 413.71 132.10 418.61 131.75
  C 429.37 130.98 439.96 129.22 450.74 128.50
  Q 457.64 128.03 467.22 126.91
  Q 477.09 125.75 487.04 125.62
  Q 491.74 125.55 498.92 124.93
  Q 505.40 124.37 514.50 124.28
  Q 531.88 124.12 538.49 124.67
  Q 545.25 125.23 551.62 127.27
  Q 474.19 128.09 403.00 138.03
  Q 381.78 140.99 348.03 147.61
  Q 267.17 163.47 191.52 196.07
  Q 190.83 196.37 190.23 196.20
  A 0.66 0.66 0.0 0 1 189.90 195.14
  C 213.53 166.30 243.35 142.86 275.54 124.27
  C 330.38 92.61 391.19 72.20 452.76 58.32
  Q 505.32 46.47 558.73 39.30
  Q 771.96 10.70 982.94 52.29
  Q 1056.80 66.85 1124.67 93.58
  C 1162.82 108.60 1200.96 128.46 1233.85 154.42
  Q 1256.42 172.22 1273.12 195.61
  C 1294.61 225.71 1303.23 260.81 1289.91 296.48
  C 1273.63 340.06 1232.62 373.85 1193.37 396.07
  Q 1132.29 430.65 1065.03 450.87
  C 995.09 471.90 923.01 483.43 850.50 490.94
  Q 850.09 490.98 849.96 490.83
  A 0.55 0.55 0.0 0 1 850.23 489.95
  C 909.06 472.61 964.56 453.89 1013.59 418.88
  Q 1037.65 401.70 1056.16 378.68
  C 1096.27 328.79 1070.83 273.00 1026.16 238.58
  C 983.80 205.96 932.34 183.23 879.41 167.93
  Q 781.41 139.59 679.47 131.15
  Z"
/>
<path fill="#00a2ea" d="
  M 679.47 131.15
  Q 676.79 131.01 674.01 130.79
  C 633.19 127.64 592.50 127.51 551.62 127.27
  Q 545.25 125.23 538.49 124.67
  Q 531.88 124.12 514.50 124.28
  Q 505.40 124.37 498.92 124.93
  Q 491.74 125.55 487.04 125.62
  Q 477.09 125.75 467.22 126.91
  Q 457.64 128.03 450.74 128.50
  C 439.96 129.22 429.37 130.98 418.61 131.75
  Q 413.71 132.10 408.88 133.03
  Q 402.65 134.23 398.47 134.67
  C 393.78 135.16 389.21 135.98 384.48 136.19
  Q 367.56 136.94 350.99 140.59
  Q 344.44 142.04 338.54 145.26
  A 1.88 1.84 30.4 0 1 337.66 145.48
  C 334.61 145.45 332.08 147.05 329.89 147.62
  C 323.80 149.23 318.72 150.46 311.60 152.33
  C 307.61 153.38 303.46 154.00 299.53 155.05
  Q 294.26 156.44 286.75 157.98
  C 282.67 158.81 278.52 160.76 274.32 161.80
  C 269.66 162.96 265.46 164.83 260.64 165.99
  C 258.44 166.52 254.01 167.26 252.08 168.99
  Q 251.74 169.29 251.30 169.39
  L 234.03 173.39
  A 0.28 0.27 13.0 0 0 233.91 173.46
  Q 231.90 175.28 227.98 176.31
  C 224.17 177.31 221.27 176.69 219.39 173.26
  Q 218.85 172.27 218.07 171.44
  Q 217.70 171.05 217.95 170.58
  Q 219.48 167.61 221.45 166.67
  Q 227.68 163.70 230.75 159.31
  A 1.90 1.84 -83.7 0 1 231.52 158.67
  Q 236.58 156.41 241.23 151.87
  Q 250.62 142.71 263.61 136.19
  Q 277.64 129.15 291.20 121.21
  Q 295.08 118.93 300.67 116.55
  C 306.49 114.08 312.09 110.66 317.59 108.48
  Q 328.55 104.13 339.61 100.10
  C 345.45 97.97 351.04 93.94 355.82 92.10
  C 360.70 90.21 366.03 89.29 370.55 87.64
  Q 386.38 81.84 402.66 77.53
  Q 405.59 76.75 410.92 76.23
  Q 416.13 75.71 421.14 74.19
  Q 422.95 73.64 426.03 71.69
  Q 429.28 69.63 432.93 68.87
  C 443.63 66.66 455.79 65.41 466.83 62.10
  Q 482.86 57.30 499.42 55.07
  Q 511.23 53.48 516.24 52.58
  Q 524.62 51.08 533.02 49.65
  Q 533.51 49.56 549.88 46.29
  Q 558.81 44.51 567.92 43.84
  Q 571.21 43.60 574.01 42.91
  C 584.86 40.23 596.19 39.34 607.27 37.91
  Q 623.08 35.88 638.98 35.62
  Q 651.39 35.43 658.23 34.85
  Q 668.39 33.99 678.54 33.02
  Q 688.85 32.03 698.50 32.02
  Q 726.99 31.96 755.47 32.09
  Q 763.96 32.12 774.98 33.00
  C 783.65 33.69 791.92 34.03 800.99 34.82
  C 813.42 35.90 826.65 35.68 838.17 36.87
  C 853.31 38.43 868.73 39.86 883.74 42.39
  Q 889.85 43.42 894.95 43.96
  Q 913.25 45.88 926.88 48.62
  Q 939.81 51.23 950.09 52.63
  C 960.99 54.11 970.49 55.65 978.52 57.45
  Q 989.20 59.84 995.08 60.85
  Q 1011.53 63.67 1022.25 66.96
  Q 1025.46 67.95 1027.88 68.39
  Q 1031.92 69.12 1033.50 69.62
  Q 1043.62 72.78 1063.51 77.95
  Q 1069.56 79.53 1086.30 84.76
  C 1097.37 88.22 1108.31 93.75 1119.50 97.82
  Q 1127.37 100.68 1133.86 103.76
  C 1145.31 109.20 1157.85 114.39 1168.27 119.81
  C 1178.61 125.18 1187.16 130.52 1196.01 135.69
  Q 1202.53 139.50 1207.14 142.82
  Q 1212.58 146.74 1218.01 150.66
  C 1227.74 157.68 1236.46 165.53 1245.09 173.66
  C 1246.61 175.09 1247.83 176.96 1249.15 178.27
  Q 1259.46 188.54 1268.34 200.03
  Q 1274.59 208.13 1278.68 216.58
  C 1283.65 226.87 1287.97 238.28 1290.10 249.55
  C 1291.48 256.89 1290.55 265.28 1290.46 273.00
  Q 1290.45 273.59 1289.98 274.19
  Q 1289.68 274.58 1289.60 275.07
  Q 1288.95 279.04 1288.39 283.03
  Q 1287.80 287.26 1286.45 290.72
  Q 1280.09 307.00 1271.53 318.78
  Q 1259.31 335.59 1255.08 340.08
  C 1245.46 350.28 1239.73 356.76 1231.91 362.95
  Q 1228.24 365.87 1224.84 368.86
  C 1216.09 376.57 1207.07 383.07 1197.04 389.45
  Q 1192.26 392.49 1186.65 395.51
  Q 1180.28 398.93 1173.95 402.42
  Q 1169.88 404.67 1159.71 409.32
  Q 1154.51 411.70 1145.19 415.60
  Q 1131.63 421.28 1118.26 427.40
  C 1116.09 428.40 1113.56 428.67 1111.33 429.69
  Q 1108.16 431.14 1104.85 432.21
  Q 1102.02 433.13 1098.45 434.78
  Q 1094.52 436.60 1090.26 437.50
  C 1087.40 438.10 1085.58 439.64 1083.01 440.38
  Q 1079.34 441.42 1075.72 442.64
  C 1067.35 445.45 1057.87 446.56 1050.75 449.20
  Q 1040.85 452.88 1035.00 453.99
  Q 1030.78 454.79 1024.16 457.22
  Q 1018.52 459.28 1013.61 460.34
  Q 999.91 463.29 986.37 466.85
  Q 984.86 467.25 977.00 468.83
  C 971.33 469.97 966.87 472.31 960.35 472.45
  Q 957.00 472.52 953.24 473.30
  Q 946.36 474.72 939.32 474.44
  Q 938.85 474.42 938.52 474.11
  Q 936.02 471.74 936.14 468.30
  A 1.25 1.23 70.5 0 1 936.55 467.42
  Q 937.81 466.24 939.03 465.13
  C 940.83 463.48 943.21 463.11 945.38 462.05
  Q 956.33 456.67 967.47 451.71
  Q 970.29 450.45 972.05 449.75
  C 978.77 447.05 985.20 442.97 991.65 439.63
  Q 995.40 437.69 1000.35 434.25
  C 1004.22 431.56 1007.98 429.75 1011.54 426.46
  Q 1016.76 421.63 1022.87 417.98
  Q 1022.93 417.95 1030.63 414.22
  Q 1036.98 411.15 1042.06 405.81
  Q 1051.09 396.31 1058.47 387.27
  C 1061.44 383.63 1062.93 379.68 1065.51 375.81
  Q 1072.69 365.05 1076.82 352.73
  Q 1077.77 349.91 1079.89 341.44
  C 1081.98 333.11 1082.48 326.08 1082.04 317.92
  C 1081.84 314.28 1080.49 309.98 1080.03 305.76
  Q 1079.71 302.93 1079.01 300.94
  Q 1074.63 288.58 1069.09 279.65
  Q 1068.16 278.16 1068.07 277.12
  Q 1068.03 276.64 1067.72 276.26
  Q 1065.98 274.19 1064.22 272.15
  Q 1062.63 270.32 1061.37 267.58
  C 1059.20 262.88 1055.20 259.86 1053.24 256.00
  Q 1052.41 254.38 1049.69 252.14
  Q 1047.65 250.45 1046.19 248.33
  Q 1043.66 244.64 1041.39 242.98
  Q 1035.66 238.81 1030.40 234.07
  Q 1030.29 233.98 1028.64 232.97
  Q 1027.95 232.55 1027.63 231.74
  A 1.88 1.87 -82.2 0 0 1027.04 230.96
  C 1023.30 228.16 1019.75 224.94 1016.01 222.47
  Q 998.19 210.69 985.31 203.68
  Q 979.08 200.30 965.77 193.86
  C 953.35 187.85 939.62 182.76 926.51 177.19
  Q 921.00 174.85 915.27 173.17
  Q 912.02 172.22 903.59 170.85
  Q 890.32 168.70 877.84 163.65
  C 874.63 162.35 870.98 162.38 867.64 160.42
  Q 867.20 160.16 866.68 160.15
  Q 864.03 160.09 861.57 159.23
  Q 859.63 158.55 857.27 158.22
  C 855.12 157.92 853.16 156.96 851.38 156.52
  Q 848.59 155.84 845.82 155.09
  Q 844.80 154.82 840.08 154.13
  C 836.86 153.66 834.34 151.89 831.23 151.49
  Q 826.35 150.87 821.54 149.95
  C 820.76 149.80 819.41 150.26 818.69 149.28
  A 1.14 1.14 0.0 0 0 817.97 148.83
  Q 808.40 147.15 798.87 145.31
  Q 798.30 145.20 797.74 145.04
  Q 793.93 143.95 790.41 142.89
  C 787.34 141.96 783.68 141.92 780.00 140.90
  Q 773.63 139.16 759.84 137.78
  Q 758.69 137.67 757.57 137.13
  C 756.63 136.67 755.61 136.18 754.58 136.00
  Q 745.31 134.44 735.95 133.74
  Q 731.89 133.44 726.68 132.35
  C 714.89 129.90 702.14 130.12 690.13 129.83
  Q 684.68 129.70 679.47 131.15
  Z"
/>
<path fill="#1c98c4" d="
  M 647.28 507.34
  Q 641.06 510.80 634.13 508.88
  Q 633.67 508.75 633.34 509.15
  Q 633.02 509.53 632.52 509.52
  C 625.25 509.39 617.75 509.79 610.84 509.30
  Q 589.39 507.78 568.17 504.41
  C 555.06 502.33 544.62 500.99 532.80 499.47
  C 527.89 498.84 523.44 497.83 518.73 496.73
  Q 514.88 495.84 508.19 494.64
  C 502.54 493.62 497.09 491.97 491.44 490.88
  C 485.94 489.81 479.01 487.79 475.06 486.92
  C 468.02 485.39 461.25 484.11 454.12 481.88
  Q 444.19 478.77 434.03 476.63
  C 427.69 475.29 422.21 473.46 416.31 471.57
  Q 411.43 469.99 403.03 467.79
  C 388.06 463.86 373.84 457.19 360.60 452.04
  Q 352.00 448.70 345.77 445.46
  C 337.11 440.96 329.01 436.30 319.83 432.15
  Q 313.99 429.51 310.07 426.94
  Q 300.52 420.68 290.83 414.65
  C 286.23 411.79 282.26 407.94 277.85 404.71
  Q 267.95 397.45 259.22 388.78
  Q 253.69 383.28 252.37 380.86
  Q 251.08 378.50 249.95 377.37
  Q 249.59 377.01 249.35 376.57
  Q 248.34 374.65 246.14 372.25
  Q 244.36 370.32 241.47 365.71
  Q 240.85 364.71 239.30 362.70
  C 237.41 360.26 236.24 357.35 234.41 355.01
  Q 231.44 351.21 229.54 346.74
  Q 228.15 343.49 226.83 340.19
  C 225.26 336.29 224.97 332.23 223.86 328.01
  Q 223.01 324.77 222.80 322.65
  Q 221.23 306.58 225.15 291.05
  C 226.92 284.08 230.60 276.66 233.68 269.69
  Q 236.09 264.24 239.19 259.77
  C 242.18 255.45 245.09 251.38 248.57 247.44
  Q 249.73 246.12 251.36 243.86
  Q 253.65 240.68 262.17 233.72
  C 266.24 230.38 269.99 225.61 275.33 222.60
  Q 275.78 222.35 275.97 221.86
  Q 276.23 221.16 276.51 221.02
  C 279.34 219.50 282.00 218.05 284.58 215.95
  C 294.43 207.95 303.42 202.21 314.97 194.88
  Q 319.40 192.07 322.92 190.14
  Q 328.80 186.92 331.27 186.08
  Q 346.37 180.96 356.74 174.24
  C 360.11 172.06 359.97 166.97 356.02 165.09
  Q 354.90 164.56 353.40 164.84
  Q 345.11 166.40 336.75 167.53
  Q 334.34 167.85 327.84 169.91
  C 322.90 171.47 317.76 171.11 312.61 172.02
  Q 309.27 172.60 304.12 174.70
  Q 295.56 178.18 286.50 180.09
  C 282.26 180.98 278.65 182.07 274.68 183.14
  C 268.01 184.92 260.82 185.62 253.87 186.93
  C 244.31 188.73 233.27 193.83 225.98 195.47
  Q 207.37 199.68 190.73 208.93
  Q 187.19 210.89 181.02 212.73
  Q 174.99 214.52 171.27 216.26
  Q 163.65 219.85 156.21 223.82
  C 153.33 225.36 151.13 227.36 148.06 228.75
  Q 136.84 233.86 125.73 239.23
  C 122.61 240.75 119.50 243.11 116.07 244.76
  Q 110.35 247.52 108.67 248.53
  Q 83.07 264.08 65.39 280.14
  Q 62.04 283.18 52.79 292.38
  C 49.40 295.75 46.00 299.99 42.42 303.65
  C 34.14 312.14 28.02 322.35 22.50 332.77
  C 19.39 338.64 17.81 345.17 15.83 351.62
  Q 14.01 357.53 13.59 362.57
  C 12.66 373.86 12.80 385.92 15.85 396.60
  Q 18.50 405.90 23.27 414.44
  C 27.02 421.15 30.55 428.56 34.87 434.43
  C 39.13 440.22 44.06 445.61 48.31 451.21
  Q 58.46 464.57 68.20 472.58
  Q 78.68 481.22 89.17 489.84
  Q 93.93 493.76 113.62 504.50
  Q 122.13 509.14 130.19 514.51
  Q 134.04 517.07 138.90 519.07
  Q 144.87 521.52 157.70 527.24
  Q 158.14 527.43 160.14 528.74
  Q 161.46 529.60 163.15 529.90
  Q 163.60 529.98 163.96 530.26
  Q 167.91 533.33 174.16 535.68
  Q 184.20 539.45 190.24 541.09
  C 192.16 541.62 193.81 542.73 195.45 543.31
  Q 209.91 548.46 224.58 552.98
  C 226.49 553.57 228.34 554.61 230.04 555.58
  Q 231.85 556.62 234.20 557.33
  Q 238.32 558.58 242.02 560.84
  Q 242.39 561.07 242.84 561.08
  Q 245.13 561.13 246.94 562.53
  Q 247.34 562.84 247.84 562.88
  C 250.36 563.11 252.24 563.16 254.60 564.42
  Q 258.70 566.62 263.30 567.32
  C 268.52 568.11 272.91 570.37 278.20 571.13
  Q 282.12 571.68 286.17 572.50
  Q 290.15 573.30 294.25 573.36
  C 295.49 573.37 296.46 574.02 297.53 574.53
  Q 298.70 575.08 300.05 575.38
  Q 304.97 576.49 309.88 577.62
  Q 310.50 577.76 311.49 579.03
  A 1.04 1.03 -18.7 0 0 312.31 579.43
  Q 314.99 579.42 317.64 579.76
  C 319.45 579.99 320.95 581.01 322.96 581.32
  C 326.46 581.85 329.48 583.22 332.73 583.04
  Q 338.03 582.75 342.87 584.06
  Q 345.79 584.85 348.56 584.58
  Q 348.98 584.54 349.32 584.78
  Q 353.10 587.45 357.75 587.12
  A 1.53 1.50 -34.1 0 1 358.51 587.26
  C 362.73 589.29 366.88 588.89 371.02 589.75
  Q 374.14 590.40 377.32 590.61
  Q 380.92 590.85 383.60 591.36
  Q 391.76 592.91 400.08 592.90
  Q 403.84 592.90 407.34 593.61
  Q 411.58 594.47 415.87 595.02
  Q 426.12 596.33 428.08 596.62
  C 439.53 598.33 451.18 598.87 462.43 599.97
  Q 469.12 600.63 475.83 601.08
  C 477.94 601.21 480.02 602.17 482.12 602.40
  Q 488.60 603.10 495.09 603.88
  Q 498.85 604.33 505.43 604.36
  Q 513.17 604.40 520.74 605.98
  C 522.61 606.37 524.10 607.34 525.96 607.96
  Q 379.84 604.50 239.46 564.14
  Q 180.07 547.06 125.31 518.42
  C 82.35 495.94 38.04 462.92 16.97 417.80
  C -19.38 339.96 51.78 275.43 110.59 240.59
  Q 144.18 220.68 180.70 206.84
  Q 276.91 170.36 378.78 155.66
  Q 408.07 151.44 437.51 148.31
  Q 442.93 147.74 448.00 147.63
  A 0.42 0.42 0.0 0 1 448.13 148.45
  Q 413.82 159.12 380.60 171.26
  C 321.54 192.85 214.12 247.56 228.89 327.80
  C 235.19 362.02 264.94 390.24 292.40 409.37
  C 315.68 425.59 342.64 439.76 370.15 450.28
  C 459.17 484.30 552.10 501.45 647.28 507.34
  Z"
/>
<path fill="#00a2ea" d="
  M 647.28 507.34
  Q 788.58 516.74 928.51 494.22
  Q 947.30 491.20 980.48 483.85
  C 1013.81 476.46 1046.72 466.33 1078.74 454.54
  C 1089.62 450.54 1100.50 445.72 1111.29 440.97
  Q 1112.49 440.45 1113.50 440.97
  A 0.45 0.45 0.0 0 1 1113.65 441.64
  Q 1093.53 468.08 1066.82 487.55
  Q 1066.20 485.58 1064.06 486.40
  C 1061.72 487.28 1059.16 487.34 1057.13 488.91
  C 1055.56 490.13 1053.73 490.29 1052.15 491.63
  Q 1048.21 494.98 1043.68 497.44
  C 1038.56 500.22 1034.54 504.16 1029.25 506.80
  C 1016.92 512.97 1004.60 519.86 991.63 524.54
  Q 989.18 525.43 985.99 527.44
  C 981.02 530.58 976.25 531.80 970.12 535.13
  C 963.59 538.69 956.94 540.82 950.08 543.23
  Q 944.43 545.22 938.58 547.64
  C 932.93 549.98 927.20 552.16 921.60 554.63
  Q 918.74 555.89 915.69 556.45
  Q 910.71 557.36 908.98 557.91
  Q 902.97 559.83 896.93 561.63
  C 893.18 562.74 887.65 564.87 882.78 565.93
  Q 879.26 566.70 873.82 568.08
  C 869.22 569.25 864.26 569.88 859.07 571.37
  C 854.44 572.70 849.47 573.20 844.73 574.41
  C 837.50 576.26 830.96 577.39 824.07 578.98
  Q 820.11 579.90 813.30 580.80
  Q 806.43 581.70 799.79 583.73
  C 794.40 585.38 788.87 585.59 783.42 587.25
  Q 780.01 588.28 776.94 588.51
  Q 766.26 589.29 755.85 591.79
  Q 751.59 592.81 747.53 593.00
  Q 737.20 593.47 731.25 594.73
  Q 723.02 596.47 717.93 597.10
  Q 711.66 597.87 711.58 597.88
  Q 689.18 601.25 680.00 601.58
  Q 669.35 601.96 658.75 602.93
  C 657.65 603.03 656.32 603.86 655.04 603.94
  Q 639.52 604.85 624.14 607.85
  Q 575.28 610.01 525.96 607.96
  C 524.10 607.34 522.61 606.37 520.74 605.98
  Q 513.17 604.40 505.43 604.36
  Q 498.85 604.33 495.09 603.88
  Q 488.60 603.10 482.12 602.40
  C 480.02 602.17 477.94 601.21 475.83 601.08
  Q 469.12 600.63 462.43 599.97
  C 451.18 598.87 439.53 598.33 428.08 596.62
  Q 426.12 596.33 415.87 595.02
  Q 411.58 594.47 407.34 593.61
  Q 403.84 592.90 400.08 592.90
  Q 391.76 592.91 383.60 591.36
  Q 380.92 590.85 377.32 590.61
  Q 374.14 590.40 371.02 589.75
  C 366.88 588.89 362.73 589.29 358.51 587.26
  A 1.53 1.50 -34.1 0 0 357.75 587.12
  Q 353.10 587.45 349.32 584.78
  Q 348.98 584.54 348.56 584.58
  Q 345.79 584.85 342.87 584.06
  Q 338.03 582.75 332.73 583.04
  C 329.48 583.22 326.46 581.85 322.96 581.32
  C 320.95 581.01 319.45 579.99 317.64 579.76
  Q 314.99 579.42 312.31 579.43
  A 1.04 1.03 -18.7 0 1 311.49 579.03
  Q 310.50 577.76 309.88 577.62
  Q 304.97 576.49 300.05 575.38
  Q 298.70 575.08 297.53 574.53
  C 296.46 574.02 295.49 573.37 294.25 573.36
  Q 290.15 573.30 286.17 572.50
  Q 282.12 571.68 278.20 571.13
  C 272.91 570.37 268.52 568.11 263.30 567.32
  Q 258.70 566.62 254.60 564.42
  C 252.24 563.16 250.36 563.11 247.84 562.88
  Q 247.34 562.84 246.94 562.53
  Q 245.13 561.13 242.84 561.08
  Q 242.39 561.07 242.02 560.84
  Q 238.32 558.58 234.20 557.33
  Q 231.85 556.62 230.04 555.58
  C 228.34 554.61 226.49 553.57 224.58 552.98
  Q 209.91 548.46 195.45 543.31
  C 193.81 542.73 192.16 541.62 190.24 541.09
  Q 184.20 539.45 174.16 535.68
  Q 167.91 533.33 163.96 530.26
  Q 163.60 529.98 163.15 529.90
  Q 161.46 529.60 160.14 528.74
  Q 158.14 527.43 157.70 527.24
  Q 144.87 521.52 138.90 519.07
  Q 134.04 517.07 130.19 514.51
  Q 122.13 509.14 113.62 504.50
  Q 93.93 493.76 89.17 489.84
  Q 78.68 481.22 68.20 472.58
  Q 58.46 464.57 48.31 451.21
  C 44.06 445.61 39.13 440.22 34.87 434.43
  C 30.55 428.56 27.02 421.15 23.27 414.44
  Q 18.50 405.90 15.85 396.60
  C 12.80 385.92 12.66 373.86 13.59 362.57
  Q 14.01 357.53 15.83 351.62
  C 17.81 345.17 19.39 338.64 22.50 332.77
  C 28.02 322.35 34.14 312.14 42.42 303.65
  C 46.00 299.99 49.40 295.75 52.79 292.38
  Q 62.04 283.18 65.39 280.14
  Q 83.07 264.08 108.67 248.53
  Q 110.35 247.52 116.07 244.76
  C 119.50 243.11 122.61 240.75 125.73 239.23
  Q 136.84 233.86 148.06 228.75
  C 151.13 227.36 153.33 225.36 156.21 223.82
  Q 163.65 219.85 171.27 216.26
  Q 174.99 214.52 181.02 212.73
  Q 187.19 210.89 190.73 208.93
  Q 207.37 199.68 225.98 195.47
  C 233.27 193.83 244.31 188.73 253.87 186.93
  C 260.82 185.62 268.01 184.92 274.68 183.14
  C 278.65 182.07 282.26 180.98 286.50 180.09
  Q 295.56 178.18 304.12 174.70
  Q 309.27 172.60 312.61 172.02
  C 317.76 171.11 322.90 171.47 327.84 169.91
  Q 334.34 167.85 336.75 167.53
  Q 345.11 166.40 353.40 164.84
  Q 354.90 164.56 356.02 165.09
  C 359.97 166.97 360.11 172.06 356.74 174.24
  Q 346.37 180.96 331.27 186.08
  Q 328.80 186.92 322.92 190.14
  Q 319.40 192.07 314.97 194.88
  C 303.42 202.21 294.43 207.95 284.58 215.95
  C 282.00 218.05 279.34 219.50 276.51 221.02
  Q 276.23 221.16 275.97 221.86
  Q 275.78 222.35 275.33 222.60
  C 269.99 225.61 266.24 230.38 262.17 233.72
  Q 253.65 240.68 251.36 243.86
  Q 249.73 246.12 248.57 247.44
  C 245.09 251.38 242.18 255.45 239.19 259.77
  Q 236.09 264.24 233.68 269.69
  C 230.60 276.66 226.92 284.08 225.15 291.05
  Q 221.23 306.58 222.80 322.65
  Q 223.01 324.77 223.86 328.01
  C 224.97 332.23 225.26 336.29 226.83 340.19
  Q 228.15 343.49 229.54 346.74
  Q 231.44 351.21 234.41 355.01
  C 236.24 357.35 237.41 360.26 239.30 362.70
  Q 240.85 364.71 241.47 365.71
  Q 244.36 370.32 246.14 372.25
  Q 248.34 374.65 249.35 376.57
  Q 249.59 377.01 249.95 377.37
  Q 251.08 378.50 252.37 380.86
  Q 253.69 383.28 259.22 388.78
  Q 267.95 397.45 277.85 404.71
  C 282.26 407.94 286.23 411.79 290.83 414.65
  Q 300.52 420.68 310.07 426.94
  Q 313.99 429.51 319.83 432.15
  C 329.01 436.30 337.11 440.96 345.77 445.46
  Q 352.00 448.70 360.60 452.04
  C 373.84 457.19 388.06 463.86 403.03 467.79
  Q 411.43 469.99 416.31 471.57
  C 422.21 473.46 427.69 475.29 434.03 476.63
  Q 444.19 478.77 454.12 481.88
  C 461.25 484.11 468.02 485.39 475.06 486.92
  C 479.01 487.79 485.94 489.81 491.44 490.88
  C 497.09 491.97 502.54 493.62 508.19 494.64
  Q 514.88 495.84 518.73 496.73
  C 523.44 497.83 527.89 498.84 532.80 499.47
  C 544.62 500.99 555.06 502.33 568.17 504.41
  Q 589.39 507.78 610.84 509.30
  C 617.75 509.79 625.25 509.39 632.52 509.52
  Q 633.02 509.53 633.34 509.15
  Q 633.67 508.75 634.13 508.88
  Q 641.06 510.80 647.28 507.34
  Z"
/>
<path fill="#00a2ea" d="
  M 336.52 399.75
  C 330.39 398.46 326.31 402.50 325.42 408.20
  A 1.23 1.23 0.0 0 1 324.92 409.01
  C 323.38 410.06 318.71 410.54 318.72 407.75
  Q 318.87 382.80 318.14 357.87
  Q 318.03 353.94 319.52 350.52
  A 2.50 2.49 -67.3 0 1 322.73 349.20
  C 323.95 349.68 324.73 350.83 325.17 352.16
  Q 329.58 365.38 330.97 368.82
  C 341.44 394.66 376.27 401.38 400.74 397.38
  C 412.66 395.44 426.55 386.94 428.34 374.06
  C 429.97 362.39 422.18 351.70 412.09 346.47
  Q 379.85 329.76 346.98 314.27
  C 325.37 304.09 309.12 280.11 320.84 256.05
  C 330.58 236.06 357.33 227.83 377.99 227.85
  C 394.67 227.86 410.13 232.57 425.97 237.28
  Q 427.89 237.85 430.17 236.94
  C 434.76 235.11 436.83 227.00 440.79 226.56
  Q 441.29 226.50 441.66 226.83
  Q 443.02 228.04 443.02 229.75
  Q 443.09 256.62 443.06 283.50
  Q 443.06 285.84 442.63 287.37
  Q 442.50 287.84 442.02 287.97
  Q 437.50 289.17 436.52 285.23
  Q 433.79 274.18 432.27 270.64
  Q 425.45 254.73 410.26 246.52
  C 395.74 238.65 377.13 235.75 361.62 241.61
  C 352.61 245.01 343.44 253.73 341.94 263.15
  C 340.31 273.42 349.26 280.58 357.34 285.65
  C 367.06 291.75 375.39 295.74 387.59 301.06
  Q 408.59 310.21 425.47 319.52
  C 447.26 331.55 465.71 351.10 453.43 377.41
  C 447.88 389.31 436.28 398.02 424.14 403.27
  C 411.25 408.85 393.01 410.57 379.50 408.93
  Q 363.46 406.98 354.29 404.41
  Q 341.43 400.79 336.52 399.75
  Z"
/>
<path fill="#00a2ea" d="
  M 797.8933 316.2553
  A 103.79 91.30 -1.3 0 1 696.2014 409.8865
  A 103.79 91.30 -1.3 0 1 590.3667 320.9647
  A 103.79 91.30 -1.3 0 1 692.0586 227.3335
  A 103.79 91.30 -1.3 0 1 797.8933 316.2553
  Z
  M 634.18 276.21
  C 621.70 307.44 623.50 364.05 653.44 386.35
  C 673.99 401.65 701.79 404.63 724.87 393.03
  C 762.94 373.90 767.60 321.20 756.87 284.66
  C 753.45 273.01 747.67 261.99 738.75 253.76
  C 724.44 240.58 705.52 235.07 686.28 237.52
  C 663.99 240.36 642.75 254.75 634.18 276.21
  Z"
/>
<path fill="#00a2ea" d="
  M 511.32 252.25
  C 511.31 238.89 494.72 236.32 484.43 236.19
  Q 482.64 236.17 481.75 234.65
  Q 481.52 234.26 481.70 233.84
  Q 482.65 231.59 484.50 231.59
  Q 526.08 231.46 567.66 231.42
  C 570.26 231.42 571.86 231.10 572.12 234.00
  A 1.91 1.91 0.0 0 1 570.15 236.08
  Q 563.32 235.85 556.64 237.57
  C 546.90 240.06 543.13 244.99 542.80 254.74
  Q 540.69 317.62 542.04 380.50
  Q 542.11 383.86 543.43 388.14
  C 546.86 399.24 558.21 400.55 567.91 400.29
  C 570.91 400.21 572.98 400.71 572.13 404.33
  A 1.86 1.85 -83.3 0 1 570.33 405.76
  Q 529.38 405.77 488.29 405.74
  C 486.20 405.74 484.29 405.88 482.49 404.85
  A 1.54 1.53 46.7 0 1 482.57 402.13
  C 492.27 397.40 504.78 403.00 509.98 390.01
  C 511.14 387.10 511.26 381.37 511.27 377.31
  Q 511.33 314.78 511.32 252.25
  Z"
/>
<path fill="#00a2ea" d="
  M 923.17 243.25
  Q 922.63 243.29 922.63 243.83
  Q 921.91 313.10 922.36 381.51
  C 922.46 398.04 935.76 401.49 949.55 400.18
  Q 950.05 400.13 950.47 400.41
  C 953.78 402.64 951.21 406.10 947.75 406.07
  Q 908.37 405.72 869.00 405.77
  Q 866.28 405.77 863.61 405.42
  A 1.64 1.64 0.0 0 1 862.22 403.46
  Q 862.54 401.92 864.18 401.60
  C 874.97 399.51 891.12 399.00 891.24 383.75
  Q 891.82 316.00 892.06 248.25
  Q 892.07 246.11 891.75 244.02
  Q 891.67 243.54 891.19 243.48
  Q 870.91 241.23 854.09 243.59
  Q 830.23 246.92 825.31 270.24
  C 824.88 272.28 822.93 274.69 820.63 273.63
  Q 819.20 272.97 819.28 271.42
  Q 820.20 252.93 821.31 234.06
  Q 821.47 231.27 824.27 231.27
  L 991.38 231.26
  Q 993.62 231.25 993.82 233.49
  Q 995.32 250.75 996.27 269.24
  Q 996.42 272.13 994.03 273.06
  A 2.51 2.51 0.0 0 1 990.79 271.67
  C 989.45 268.39 988.58 264.34 987.11 261.49
  C 980.03 247.75 966.79 243.62 952.24 242.87
  Q 937.54 242.10 923.17 243.25
  Z"
/>
<path fill="#ffffff" d="
  M 634.18 276.21
  C 642.75 254.75 663.99 240.36 686.28 237.52
  C 705.52 235.07 724.44 240.58 738.75 253.76
  C 747.67 261.99 753.45 273.01 756.87 284.66
  C 767.60 321.20 762.94 373.90 724.87 393.03
  C 701.79 404.63 673.99 401.65 653.44 386.35
  C 623.50 364.05 621.70 307.44 634.18 276.21
  Z"
/>
<path fill="#1c98c4" d="
  M 1066.82 487.55
  C 1016.75 523.78 959.06 548.44 899.78 565.34
  Q 776.83 600.40 649.15 606.74
  C 643.18 607.04 632.53 607.98 624.14 607.85
  Q 639.52 604.85 655.04 603.94
  C 656.32 603.86 657.65 603.03 658.75 602.93
  Q 669.35 601.96 680.00 601.58
  Q 689.18 601.25 711.58 597.88
  Q 711.66 597.87 717.93 597.10
  Q 723.02 596.47 731.25 594.73
  Q 737.20 593.47 747.53 593.00
  Q 751.59 592.81 755.85 591.79
  Q 766.26 589.29 776.94 588.51
  Q 780.01 588.28 783.42 587.25
  C 788.87 585.59 794.40 585.38 799.79 583.73
  Q 806.43 581.70 813.30 580.80
  Q 820.11 579.90 824.07 578.98
  C 830.96 577.39 837.50 576.26 844.73 574.41
  C 849.47 573.20 854.44 572.70 859.07 571.37
  C 864.26 569.88 869.22 569.25 873.82 568.08
  Q 879.26 566.70 882.78 565.93
  C 887.65 564.87 893.18 562.74 896.93 561.63
  Q 902.97 559.83 908.98 557.91
  Q 910.71 557.36 915.69 556.45
  Q 918.74 555.89 921.60 554.63
  C 927.20 552.16 932.93 549.98 938.58 547.64
  Q 944.43 545.22 950.08 543.23
  C 956.94 540.82 963.59 538.69 970.12 535.13
  C 976.25 531.80 981.02 530.58 985.99 527.44
  Q 989.18 525.43 991.63 524.54
  C 1004.60 519.86 1016.92 512.97 1029.25 506.80
  C 1034.54 504.16 1038.56 500.22 1043.68 497.44
  Q 1048.21 494.98 1052.15 491.63
  C 1053.73 490.29 1055.56 490.13 1057.13 488.91
  C 1059.16 487.34 1061.72 487.28 1064.06 486.40
  Q 1066.20 485.58 1066.82 487.55
  Z"
/>
</svg>
